<?xml version="1.0" encoding="UTF-8"?>
<mxGraphModel dx="1115" dy="742" grid="1" gridSize="10" guides="1" tooltips="1" connect="1" arrows="1" fold="1" page="1" pageScale="1" pageWidth="827" pageHeight="1169" math="0" shadow="0">
  <root>
    <mxCell id="0"/>
    <mxCell id="1" parent="0"/>
    
    <!-- Main Container -->
    <mxCell id="2" value="LangGraph Simulation" style="rounded=1;strokeColor=#000000;fillColor=#E3F2FD;fontSize=14;" vertex="1" parent="1">
      <mxGeometry x="100" y="100" width="600" height="400" as="geometry"/>
    </mxCell>
    
    <!-- Simulation Inputs -->
    <mxCell id="3" value="Simulation Inputs:&#xa;- 'persona' as system prompt&#xa;- Starting message" style="rounded=1;strokeColor=#000000;fillColor=#FFF3E0;fontSize=14;" vertex="1" parent="1">
      <mxGeometry x="200" y="20" width="400" height="80" as="geometry"/>
    </mxCell>
    
    <!-- Teacher Node -->
    <mxCell id="4" value="Teacher Agent&#xa;- Guides step-by-step&#xa;- Uses LLMChain&#xa;- Checks learner understanding" style="ellipse;strokeColor=#000000;fillColor=#C8E6C9;fontSize=14;" vertex="1" parent="1">
      <mxGeometry x="250" y="150" width="200" height="80" as="geometry"/>
    </mxCell>
    
    <!-- Learner Node -->
    <mxCell id="5" value="Learner Agent&#xa;- Reads &amp; responds&#xa;- Asks questions if confused&#xa;- Responds with gratitude" style="ellipse;strokeColor=#000000;fillColor=#FFECB3;fontSize=14;" vertex="1" parent="1">
      <mxGeometry x="250" y="300" width="200" height="80" as="geometry"/>
    </mxCell>
    
    <!-- Conversation Flow Arrows -->
    <mxCell id="6" edge="1" parent="1" source="4" target="5" style="edgeStyle=elbowEdgeStyle;rounded=1;strokeColor=#000000;">
      <mxGeometry relative="1" as="geometry"/>
    </mxCell>
    
    <mxCell id="7" edge="1" parent="1" source="5" target="4" style="edgeStyle=elbowEdgeStyle;rounded=1;strokeColor=#000000;">
      <mxGeometry relative="1" as="geometry"/>
    </mxCell>
    
    <!-- Conversation Evaluation -->
    <mxCell id="8" value="Conversation Evaluation&#xa;- Question Ratio&#xa;- Task Completion&#xa;- Engagement &amp; Coherence" style="rounded=1;strokeColor=#000000;fillColor=#D1C4E9;fontSize=14;" vertex="1" parent="1">
      <mxGeometry x="500" y="250" width="220" height="100" as="geometry"/>
    </mxCell>
    
    <mxCell id="9" edge="1" parent="1" source="5" target="8" style="edgeStyle=elbowEdgeStyle;rounded=1;strokeColor=#000000;">
      <mxGeometry relative="1" as="geometry"/>
    </mxCell>
    
  </root>
</mxGraphModel>
